<svg xmlns="http://www.w3.org/2000/svg" viewBox="0 0 120 310">

  <!-- ═══ SILUETA NEGRA ═══ -->

  <!-- Headstock (trapezoidal, ligeramente más ancho arriba) -->
  <path d="M45 5 L75 5 L73 32 L47 32 Z" fill="#111"/>
  <!-- Clavijas lado izquierdo (3 bultos laterales) -->
  <ellipse cx="37" cy="11" rx="8" ry="5" fill="#111"/>
  <ellipse cx="36" cy="19" rx="8" ry="5" fill="#111"/>
  <ellipse cx="37" cy="27" rx="8" ry="5" fill="#111"/>
  <!-- Clavijas lado derecho (3 bultos laterales) -->
  <ellipse cx="83" cy="11" rx="8" ry="5" fill="#111"/>
  <ellipse cx="84" cy="19" rx="8" ry="5" fill="#111"/>
  <ellipse cx="83" cy="27" rx="8" ry="5" fill="#111"/>

  <!-- Mástil (ligeramente ahusado) -->
  <path d="M47 32 L53 172 L67 172 L73 32 Z" fill="#111"/>

  <!-- Cuerpo Flying V -->
  <path d="
    M53 172
    C 42,178 14,226 3,270
    C 2,274 5,278 10,278
    C 26,282 44,286 57,296
    C 58.5,298 61.5,298 63,296
    C 76,286 94,282 110,278
    C 115,278 118,274 117,270
    C 106,226 78,178 67,172
    Z
  " fill="#111"/>

  <!-- ═══ DETALLES BLANCOS ═══ -->

  <!-- Cejilla (nut) -->
  <rect x="47" y="31.5" width="26" height="2.5" rx="0.5" fill="white"/>

  <!-- Trastes (10) -->
  <line x1="47.5" y1="44"  x2="72.5" y2="44"  stroke="white" stroke-width="1.4"/>
  <line x1="48"   y1="57"  x2="72"   y2="57"  stroke="white" stroke-width="1.4"/>
  <line x1="48.5" y1="70"  x2="71.5" y2="70"  stroke="white" stroke-width="1.4"/>
  <line x1="49"   y1="83"  x2="71"   y2="83"  stroke="white" stroke-width="1.4"/>
  <line x1="49.5" y1="96"  x2="70.5" y2="96"  stroke="white" stroke-width="1.4"/>
  <line x1="50"   y1="109" x2="70"   y2="109" stroke="white" stroke-width="1.4"/>
  <line x1="50.5" y1="122" x2="69.5" y2="122" stroke="white" stroke-width="1.4"/>
  <line x1="51"   y1="135" x2="69"   y2="135" stroke="white" stroke-width="1.4"/>
  <line x1="51.5" y1="148" x2="68.5" y2="148" stroke="white" stroke-width="1.4"/>
  <line x1="52"   y1="161" x2="68"   y2="161" stroke="white" stroke-width="1.4"/>

  <!-- Puntos de posición -->
  <circle cx="60" cy="50"  r="2.3" fill="white"/>
  <circle cx="60" cy="76"  r="2.3" fill="white"/>
  <circle cx="60" cy="102" r="2.3" fill="white"/>
  <!-- Doble punto en 12º -->
  <circle cx="57" cy="128" r="2" fill="white"/>
  <circle cx="63" cy="128" r="2" fill="white"/>

  <!-- Cuerdas (6) -->
  <line x1="52"   y1="34" x2="53.8" y2="170" stroke="white" stroke-width="0.6"/>
  <line x1="54.2" y1="34" x2="55.6" y2="170" stroke="white" stroke-width="0.6"/>
  <line x1="56.8" y1="34" x2="57.8" y2="170" stroke="white" stroke-width="0.6"/>
  <line x1="63.2" y1="34" x2="62.2" y2="170" stroke="white" stroke-width="0.6"/>
  <line x1="65.8" y1="34" x2="64.4" y2="170" stroke="white" stroke-width="0.6"/>
  <line x1="68"   y1="34" x2="66.2" y2="170" stroke="white" stroke-width="0.6"/>

  <!-- Botones de clavija (blancos con centro negro) -->
  <circle cx="31" cy="11" r="4" fill="white"/><circle cx="31" cy="11" r="1.5" fill="#111"/>
  <circle cx="30" cy="19" r="4" fill="white"/><circle cx="30" cy="19" r="1.5" fill="#111"/>
  <circle cx="31" cy="27" r="4" fill="white"/><circle cx="31" cy="27" r="1.5" fill="#111"/>
  <circle cx="89" cy="11" r="4" fill="white"/><circle cx="89" cy="11" r="1.5" fill="#111"/>
  <circle cx="90" cy="19" r="4" fill="white"/><circle cx="90" cy="19" r="1.5" fill="#111"/>
  <circle cx="89" cy="27" r="4" fill="white"/><circle cx="89" cy="27" r="1.5" fill="#111"/>

  <!-- Pastillas (2 humbuckers blancos) -->
  <rect x="49" y="179" width="22" height="9"  rx="2" fill="white"/>
  <rect x="49" y="193" width="22" height="9"  rx="2" fill="white"/>
  <!-- División central de los humbuckers -->
  <line x1="60" y1="179" x2="60" y2="188" stroke="#111" stroke-width="1"/>
  <line x1="60" y1="193" x2="60" y2="202" stroke="#111" stroke-width="1"/>

  <!-- Puente (stop-bar) -->
  <rect x="51" y="207" width="18" height="5" rx="1.5" fill="white"/>
  <!-- Tailpiece -->
  <rect x="53" y="215" width="14" height="3" rx="1"   fill="white"/>

  <!-- Mandos (2 potenciómetros en ala izquierda, posición Flying V) -->
  <circle cx="26" cy="232" r="6.5" fill="white"/>
  <circle cx="26" cy="232" r="2.5" fill="#111"/>
  <line x1="26" y1="226" x2="26" y2="229" stroke="#111" stroke-width="1.5"/>
  <circle cx="20" cy="252" r="6"   fill="white"/>
  <circle cx="20" cy="252" r="2.2" fill="#111"/>
  <line x1="20" y1="246" x2="20" y2="249" stroke="#111" stroke-width="1.5"/>

  <!-- Botón de correa (vértice inferior del V) -->
  <circle cx="60" cy="296" r="4" fill="white"/>
  <!-- Botón de correa (ala izquierda) -->
  <circle cx="6" cy="272" r="3.5" fill="white"/>

</svg>
